<mxfile host="Electron" agent="Mozilla/5.0 (Windows NT 10.0; Win64; x64) AppleWebKit/537.36 (KHTML, like Gecko) draw.io/24.7.5 Chrome/126.0.6478.183 Electron/31.3.0 Safari/537.36" version="24.7.5">
  <diagram name="第 1 页" id="rjt4TvfhB3kIMEqw2SIt">
    <mxGraphModel dx="1280" dy="592" grid="0" gridSize="10" guides="1" tooltips="1" connect="1" arrows="1" fold="1" page="0" pageScale="1" pageWidth="827" pageHeight="1169" math="0" shadow="0">
      <root>
        <mxCell id="0" />
        <mxCell id="1" parent="0" />
        <mxCell id="hbUotnrX8_8MGM3nDu8A-5" value="" style="edgeStyle=none;curved=1;rounded=0;orthogonalLoop=1;jettySize=auto;html=1;fontSize=12;startSize=8;endSize=8;" edge="1" parent="1" source="hbUotnrX8_8MGM3nDu8A-1" target="hbUotnrX8_8MGM3nDu8A-4">
          <mxGeometry relative="1" as="geometry" />
        </mxCell>
        <mxCell id="hbUotnrX8_8MGM3nDu8A-1" value="开始" style="rounded=1;whiteSpace=wrap;html=1;fillColor=#60a917;fontColor=#ffffff;strokeColor=#2D7600;" vertex="1" parent="1">
          <mxGeometry x="-9" y="14" width="120" height="60" as="geometry" />
        </mxCell>
        <mxCell id="hbUotnrX8_8MGM3nDu8A-12" value="" style="edgeStyle=none;curved=1;rounded=0;orthogonalLoop=1;jettySize=auto;html=1;fontSize=12;startSize=8;endSize=8;" edge="1" parent="1" source="hbUotnrX8_8MGM3nDu8A-4" target="hbUotnrX8_8MGM3nDu8A-11">
          <mxGeometry relative="1" as="geometry" />
        </mxCell>
        <mxCell id="hbUotnrX8_8MGM3nDu8A-4" value="kafkaTemplte.&lt;br&gt;send(topic,key,value)" style="rounded=1;whiteSpace=wrap;align=center;verticalAlign=middle;html=1;fillColor=#60a917;fontColor=#ffffff;strokeColor=#2D7600;" vertex="1" parent="1">
          <mxGeometry x="-9" y="118" width="120" height="60" as="geometry" />
        </mxCell>
        <mxCell id="hbUotnrX8_8MGM3nDu8A-14" value="1" style="edgeStyle=none;curved=1;rounded=0;orthogonalLoop=1;jettySize=auto;html=1;fontSize=12;startSize=8;endSize=8;" edge="1" parent="1" source="hbUotnrX8_8MGM3nDu8A-11" target="hbUotnrX8_8MGM3nDu8A-13">
          <mxGeometry relative="1" as="geometry" />
        </mxCell>
        <mxCell id="hbUotnrX8_8MGM3nDu8A-15" value="1" style="edgeLabel;html=1;align=center;verticalAlign=middle;resizable=0;points=[];fontSize=12;" vertex="1" connectable="0" parent="hbUotnrX8_8MGM3nDu8A-14">
          <mxGeometry x="-0.0872" y="-3" relative="1" as="geometry">
            <mxPoint as="offset" />
          </mxGeometry>
        </mxCell>
        <mxCell id="hbUotnrX8_8MGM3nDu8A-36" value="2" style="edgeStyle=none;curved=1;rounded=0;orthogonalLoop=1;jettySize=auto;html=1;fontSize=12;startSize=8;endSize=8;" edge="1" parent="1" source="hbUotnrX8_8MGM3nDu8A-11" target="hbUotnrX8_8MGM3nDu8A-35">
          <mxGeometry relative="1" as="geometry" />
        </mxCell>
        <mxCell id="hbUotnrX8_8MGM3nDu8A-11" value="doSend&lt;br&gt;(producerRecord)" style="whiteSpace=wrap;html=1;rounded=1;fillColor=#60a917;fontColor=#ffffff;strokeColor=#2D7600;" vertex="1" parent="1">
          <mxGeometry x="-6" y="231" width="120" height="60" as="geometry" />
        </mxCell>
        <mxCell id="hbUotnrX8_8MGM3nDu8A-13" value="getTheProducer&lt;br&gt;(topic)" style="rounded=1;whiteSpace=wrap;html=1;fillColor=#60a917;fontColor=#ffffff;strokeColor=#2D7600;" vertex="1" parent="1">
          <mxGeometry x="-247" y="343" width="120" height="60" as="geometry" />
        </mxCell>
        <mxCell id="hbUotnrX8_8MGM3nDu8A-22" value="" style="edgeStyle=none;curved=1;rounded=0;orthogonalLoop=1;jettySize=auto;html=1;fontSize=12;startSize=8;endSize=8;" edge="1" parent="1" source="hbUotnrX8_8MGM3nDu8A-19" target="hbUotnrX8_8MGM3nDu8A-21">
          <mxGeometry relative="1" as="geometry" />
        </mxCell>
        <mxCell id="hbUotnrX8_8MGM3nDu8A-19" value="根据topic获取生产者实现&lt;br&gt;getProducerFactory(topic)&lt;br&gt;.createProducer()" style="rounded=0;whiteSpace=wrap;html=1;fillColor=#60a917;fontColor=#ffffff;strokeColor=#2D7600;strokeWidth=2;" vertex="1" parent="1">
          <mxGeometry x="-258.5" y="459" width="143" height="90" as="geometry" />
        </mxCell>
        <mxCell id="hbUotnrX8_8MGM3nDu8A-20" value="" style="endArrow=classic;html=1;rounded=0;fontSize=12;startSize=8;endSize=8;curved=1;exitX=0.5;exitY=1;exitDx=0;exitDy=0;" edge="1" parent="1" source="hbUotnrX8_8MGM3nDu8A-13" target="hbUotnrX8_8MGM3nDu8A-19">
          <mxGeometry width="50" height="50" relative="1" as="geometry">
            <mxPoint x="55" y="325" as="sourcePoint" />
            <mxPoint x="105" y="275" as="targetPoint" />
          </mxGeometry>
        </mxCell>
        <mxCell id="hbUotnrX8_8MGM3nDu8A-24" value="" style="edgeStyle=none;curved=1;rounded=0;orthogonalLoop=1;jettySize=auto;html=1;fontSize=12;startSize=8;endSize=8;" edge="1" parent="1" source="hbUotnrX8_8MGM3nDu8A-21" target="hbUotnrX8_8MGM3nDu8A-23">
          <mxGeometry relative="1" as="geometry" />
        </mxCell>
        <mxCell id="hbUotnrX8_8MGM3nDu8A-21" value="DefauleKafkaProducerFactory&lt;br&gt;类中调用doCreateProducer()-&amp;gt;createKafkaProducer()-&amp;gt;&lt;br&gt;new KafkaProducer()" style="whiteSpace=wrap;html=1;fillColor=#60a917;strokeColor=#2D7600;fontColor=#ffffff;rounded=0;strokeWidth=3;" vertex="1" parent="1">
          <mxGeometry x="-270.25" y="628" width="166.5" height="92" as="geometry" />
        </mxCell>
        <mxCell id="hbUotnrX8_8MGM3nDu8A-26" value="" style="edgeStyle=none;curved=1;rounded=0;orthogonalLoop=1;jettySize=auto;html=1;fontSize=12;startSize=8;endSize=8;" edge="1" parent="1" source="hbUotnrX8_8MGM3nDu8A-23" target="hbUotnrX8_8MGM3nDu8A-25">
          <mxGeometry relative="1" as="geometry" />
        </mxCell>
        <mxCell id="hbUotnrX8_8MGM3nDu8A-23" value="当new kafkaProducer&lt;br&gt;会调用&lt;span style=&quot;color: rgb(255, 198, 109); background-color: rgb(43, 43, 43); font-family: &amp;quot;JetBrains Mono&amp;quot;, monospace; font-size: 9.8pt; white-space: pre;&quot;&gt;newSender&lt;br/&gt;最终会调用 &lt;br/&gt;new Sender()&lt;/span&gt;" style="whiteSpace=wrap;html=1;fillColor=#60a917;strokeColor=#2D7600;fontColor=#ffffff;rounded=0;" vertex="1" parent="1">
          <mxGeometry x="-270.25" y="779" width="167.25" height="78" as="geometry" />
        </mxCell>
        <mxCell id="hbUotnrX8_8MGM3nDu8A-28" value="" style="edgeStyle=none;curved=1;rounded=0;orthogonalLoop=1;jettySize=auto;html=1;fontSize=12;startSize=8;endSize=8;" edge="1" parent="1" source="hbUotnrX8_8MGM3nDu8A-25" target="hbUotnrX8_8MGM3nDu8A-27">
          <mxGeometry relative="1" as="geometry" />
        </mxCell>
        <mxCell id="hbUotnrX8_8MGM3nDu8A-25" value="sender是一个线程，执行while (true){&lt;br&gt;runOnce()&lt;br&gt;}" style="whiteSpace=wrap;html=1;fillColor=#60a917;strokeColor=#2D7600;fontColor=#ffffff;rounded=0;" vertex="1" parent="1">
          <mxGeometry x="-262" y="923" width="162" height="77" as="geometry" />
        </mxCell>
        <mxCell id="hbUotnrX8_8MGM3nDu8A-30" value="" style="edgeStyle=none;curved=1;rounded=0;orthogonalLoop=1;jettySize=auto;html=1;fontSize=12;startSize=8;endSize=8;" edge="1" parent="1" source="hbUotnrX8_8MGM3nDu8A-27" target="hbUotnrX8_8MGM3nDu8A-29">
          <mxGeometry relative="1" as="geometry" />
        </mxCell>
        <mxCell id="hbUotnrX8_8MGM3nDu8A-31" value="" style="edgeStyle=none;curved=1;rounded=0;orthogonalLoop=1;jettySize=auto;html=1;fontSize=12;startSize=8;endSize=8;" edge="1" parent="1" source="hbUotnrX8_8MGM3nDu8A-27" target="hbUotnrX8_8MGM3nDu8A-29">
          <mxGeometry relative="1" as="geometry" />
        </mxCell>
        <mxCell id="hbUotnrX8_8MGM3nDu8A-33" style="edgeStyle=none;curved=1;rounded=0;orthogonalLoop=1;jettySize=auto;html=1;entryX=0.5;entryY=0;entryDx=0;entryDy=0;fontSize=12;startSize=8;endSize=8;exitX=0.5;exitY=1;exitDx=0;exitDy=0;" edge="1" parent="1" source="hbUotnrX8_8MGM3nDu8A-27" target="hbUotnrX8_8MGM3nDu8A-32">
          <mxGeometry relative="1" as="geometry">
            <mxPoint x="-100" y="1121" as="sourcePoint" />
          </mxGeometry>
        </mxCell>
        <mxCell id="hbUotnrX8_8MGM3nDu8A-27" value="&lt;font style=&quot;font-size: 13px;&quot;&gt;runOnce()的核心&lt;/font&gt;&lt;font style=&quot;font-size: 13px;&quot;&gt;&lt;font style=&quot;font-size: 13px;&quot;&gt;逻辑&lt;br&gt;&lt;/font&gt;sendProducerData()&lt;br&gt;和&lt;br&gt;cleent.poll&lt;/font&gt;" style="rounded=0;whiteSpace=wrap;html=1;fillColor=#60a917;strokeColor=#2D7600;fontColor=#ffffff;" vertex="1" parent="1">
          <mxGeometry x="-268" y="1054" width="168" height="89" as="geometry" />
        </mxCell>
        <mxCell id="hbUotnrX8_8MGM3nDu8A-49" style="edgeStyle=none;curved=1;rounded=0;orthogonalLoop=1;jettySize=auto;html=1;entryX=0;entryY=0.5;entryDx=0;entryDy=0;fontSize=12;startSize=8;endSize=8;exitX=1;exitY=0.5;exitDx=0;exitDy=0;" edge="1" parent="1" source="hbUotnrX8_8MGM3nDu8A-29" target="hbUotnrX8_8MGM3nDu8A-45">
          <mxGeometry relative="1" as="geometry">
            <mxPoint x="84" y="1044" as="sourcePoint" />
          </mxGeometry>
        </mxCell>
        <mxCell id="hbUotnrX8_8MGM3nDu8A-29" value="获取需要发送的数据&lt;br&gt;this.accmulator.drain()&lt;br&gt;这里的drain是核心逻辑&lt;br&gt;捞回来的数据：Map&amp;lt;Integer,List&amp;lt;ProducerBatch&amp;gt;&amp;gt;" style="whiteSpace=wrap;html=1;fillColor=#a20025;strokeColor=#6F0000;fontColor=#ffffff;rounded=0;strokeWidth=2;" vertex="1" parent="1">
          <mxGeometry x="-17" y="1050" width="186" height="109" as="geometry" />
        </mxCell>
        <mxCell id="hbUotnrX8_8MGM3nDu8A-32" value="修改channel 执行结果&lt;br&gt;比如根据selector 修改发送或者接收结果" style="rounded=0;whiteSpace=wrap;html=1;fillColor=#a20025;fontColor=#ffffff;strokeColor=#6F0000;" vertex="1" parent="1">
          <mxGeometry x="-253.5" y="1218" width="139" height="93" as="geometry" />
        </mxCell>
        <mxCell id="hbUotnrX8_8MGM3nDu8A-38" value="" style="edgeStyle=none;curved=1;rounded=0;orthogonalLoop=1;jettySize=auto;html=1;fontSize=12;startSize=8;endSize=8;" edge="1" parent="1" source="hbUotnrX8_8MGM3nDu8A-35" target="hbUotnrX8_8MGM3nDu8A-37">
          <mxGeometry relative="1" as="geometry" />
        </mxCell>
        <mxCell id="hbUotnrX8_8MGM3nDu8A-35" value="producer.send()" style="whiteSpace=wrap;html=1;fillColor=#60a917;strokeColor=#2D7600;fontColor=#ffffff;rounded=1;" vertex="1" parent="1">
          <mxGeometry x="284" y="335" width="120" height="60" as="geometry" />
        </mxCell>
        <mxCell id="hbUotnrX8_8MGM3nDu8A-40" value="" style="edgeStyle=none;curved=1;rounded=0;orthogonalLoop=1;jettySize=auto;html=1;fontSize=12;startSize=8;endSize=8;" edge="1" parent="1" source="hbUotnrX8_8MGM3nDu8A-37" target="hbUotnrX8_8MGM3nDu8A-39">
          <mxGeometry relative="1" as="geometry" />
        </mxCell>
        <mxCell id="hbUotnrX8_8MGM3nDu8A-37" value="&lt;font style=&quot;font-size: 15px;&quot;&gt;kafkaProducer中&lt;br&gt;doSend()&lt;/font&gt;" style="rounded=1;whiteSpace=wrap;html=1;fillColor=#60a917;strokeColor=#2D7600;fontColor=#ffffff;strokeWidth=3;" vertex="1" parent="1">
          <mxGeometry x="263.5" y="465" width="161" height="99" as="geometry" />
        </mxCell>
        <mxCell id="hbUotnrX8_8MGM3nDu8A-44" value="" style="edgeStyle=none;curved=1;rounded=0;orthogonalLoop=1;jettySize=auto;html=1;fontSize=12;startSize=8;endSize=8;" edge="1" parent="1" source="hbUotnrX8_8MGM3nDu8A-39" target="hbUotnrX8_8MGM3nDu8A-43">
          <mxGeometry relative="1" as="geometry" />
        </mxCell>
        <mxCell id="hbUotnrX8_8MGM3nDu8A-39" value="KafkaProducer这个里面的关键方法&lt;br&gt;accumlator.append()" style="whiteSpace=wrap;html=1;fillColor=#60a917;strokeColor=#2D7600;fontColor=#ffffff;rounded=1;strokeWidth=3;" vertex="1" parent="1">
          <mxGeometry x="271" y="624" width="158" height="93" as="geometry" />
        </mxCell>
        <mxCell id="hbUotnrX8_8MGM3nDu8A-46" value="" style="edgeStyle=none;curved=1;rounded=0;orthogonalLoop=1;jettySize=auto;html=1;fontSize=12;startSize=8;endSize=8;" edge="1" parent="1" source="hbUotnrX8_8MGM3nDu8A-43" target="hbUotnrX8_8MGM3nDu8A-45">
          <mxGeometry relative="1" as="geometry" />
        </mxCell>
        <mxCell id="hbUotnrX8_8MGM3nDu8A-43" value="RecordAccumulatory类中tryAppend（）" style="whiteSpace=wrap;html=1;fillColor=#60a917;strokeColor=#2D7600;fontColor=#ffffff;rounded=1;strokeWidth=3;" vertex="1" parent="1">
          <mxGeometry x="271" y="771.5" width="158" height="93" as="geometry" />
        </mxCell>
        <mxCell id="hbUotnrX8_8MGM3nDu8A-48" value="" style="edgeStyle=none;curved=1;rounded=0;orthogonalLoop=1;jettySize=auto;html=1;fontSize=12;startSize=8;endSize=8;" edge="1" parent="1" source="hbUotnrX8_8MGM3nDu8A-45" target="hbUotnrX8_8MGM3nDu8A-47">
          <mxGeometry relative="1" as="geometry" />
        </mxCell>
        <mxCell id="hbUotnrX8_8MGM3nDu8A-45" value="ProducerBatch类中tryAppend（）" style="whiteSpace=wrap;html=1;fillColor=#60a917;strokeColor=#2D7600;fontColor=#ffffff;rounded=1;strokeWidth=3;" vertex="1" parent="1">
          <mxGeometry x="274" y="926" width="158" height="93" as="geometry" />
        </mxCell>
        <mxCell id="hbUotnrX8_8MGM3nDu8A-47" value="MemoryRecordsBuilder类中Append（）" style="whiteSpace=wrap;html=1;fillColor=#60a917;strokeColor=#2D7600;fontColor=#ffffff;rounded=1;strokeWidth=3;" vertex="1" parent="1">
          <mxGeometry x="278" y="1086" width="158" height="93" as="geometry" />
        </mxCell>
      </root>
    </mxGraphModel>
  </diagram>
</mxfile>
